<svg width="208" height="35" viewBox="0 0 208 35" fill="none" xmlns="http://www.w3.org/2000/svg">
<path fill-rule="evenodd" clip-rule="evenodd" d="M144.551 17.4714V17.419C144.561 16.0872 144.302 14.767 143.787 13.5381C143.302 12.3527 142.578 11.2796 141.66 10.3857C140.707 9.46185 139.582 8.73377 138.349 8.24284C135.694 7.19518 132.74 7.19518 130.086 8.24284C128.865 8.7379 127.754 9.46943 126.818 10.3952C125.905 11.3089 125.177 12.3887 124.671 13.5762C124.152 14.8038 123.889 16.1244 123.898 17.4571V17.5143C123.891 18.8469 124.149 20.1677 124.657 21.4C125.15 22.5793 125.875 23.648 126.789 24.5428C127.734 25.4561 128.847 26.1775 130.067 26.6666C131.374 27.2011 132.776 27.4683 134.189 27.4524C135.614 27.4701 137.028 27.203 138.349 26.6666C140.795 25.682 142.744 23.7591 143.759 21.3286C144.284 20.1027 144.549 18.7811 144.536 17.4476L144.551 17.4714ZM189.915 17.4476V17.4238C189.925 16.092 189.666 14.7718 189.151 13.5428C188.662 12.3505 187.933 11.271 187.009 10.3714C186.073 9.46099 184.97 8.7384 183.76 8.24284C181.106 7.19518 178.152 7.19518 175.498 8.24284C173.053 9.2289 171.103 11.1489 170.083 13.5762C169.562 14.8035 169.297 16.1241 169.305 17.4571V17.5143C169.295 18.8476 169.554 20.1694 170.069 21.4C170.562 22.5793 171.287 23.648 172.201 24.5428C173.142 25.4539 174.25 26.1751 175.464 26.6667C176.772 27.2002 178.173 27.4674 179.586 27.4524C181.006 27.4665 182.416 27.1994 183.732 26.6667C186.173 25.6744 188.12 23.754 189.142 21.3286C189.661 20.1009 189.924 18.7803 189.915 17.4476ZM207.719 21.4286L207.709 21.4047C207.725 22.2853 207.546 23.1584 207.184 23.9619C206.85 24.6997 206.35 25.3513 205.724 25.8667C205.063 26.3941 204.305 26.7872 203.492 27.0238C202.563 27.3011 201.598 27.4376 200.629 27.4286C199.147 27.4289 197.677 27.1711 196.283 26.6667C194.857 26.1293 193.552 25.3116 192.448 24.2619L194.967 21.2524C195.798 21.9399 196.715 22.5162 197.695 22.9667C198.655 23.3976 199.697 23.6154 200.749 23.6047C201.468 23.6514 202.184 23.4858 202.81 23.1286C203.279 22.8493 203.561 22.3401 203.549 21.7952V21.7381C203.554 21.4853 203.501 21.2348 203.396 21.0047C203.258 20.7573 203.055 20.5517 202.81 20.4095C202.434 20.1834 202.034 19.9998 201.617 19.8619C200.967 19.6305 200.304 19.4366 199.632 19.2809C198.732 19.0614 197.843 18.7943 196.97 18.4809C196.243 18.2176 195.558 17.8486 194.938 17.3857C194.389 16.955 193.948 16.4022 193.65 15.7714C193.322 15.021 193.159 14.2091 193.173 13.3905V13.3333C193.156 12.5144 193.319 11.7018 193.65 10.9524C193.969 10.2477 194.438 9.62058 195.024 9.11427C195.649 8.58255 196.374 8.17958 197.156 7.92855C198.039 7.64062 198.962 7.49906 199.89 7.50951C201.23 7.49351 202.562 7.70609 203.831 8.13808C205.015 8.56157 206.121 9.17784 207.103 9.96189L204.89 13.1666C204.092 12.6151 203.24 12.1461 202.347 11.7667C201.558 11.4385 200.712 11.267 199.857 11.2619C199.197 11.2146 198.539 11.3816 197.982 11.7381C197.592 12.0162 197.361 12.4649 197.362 12.9428V12.9952C197.353 13.2775 197.415 13.5575 197.543 13.8095C197.694 14.0826 197.923 14.3046 198.201 14.4476C198.612 14.6674 199.046 14.843 199.494 14.9714C200.038 15.1381 200.73 15.3333 201.56 15.5571C202.454 15.782 203.331 16.0717 204.184 16.4238C204.885 16.7157 205.538 17.1123 206.12 17.6C206.631 18.0354 207.039 18.5786 207.313 19.1905C207.598 19.8816 207.736 20.6243 207.719 21.3714V21.4286ZM140.057 17.5143C140.069 19.0852 139.492 20.6039 138.439 21.7714C137.921 22.3262 137.295 22.7687 136.598 23.0714C135.854 23.3915 135.051 23.5536 134.241 23.5476C133.421 23.5643 132.607 23.4018 131.856 23.0714C131.159 22.7583 130.528 22.3136 130 21.7619C129.482 21.1925 129.077 20.5299 128.807 19.8095C128.525 19.0573 128.381 18.2604 128.383 17.4571V17.4047C128.38 16.6061 128.524 15.8137 128.807 15.0666C129.087 14.3641 129.493 13.7185 130.005 13.1619C130.518 12.6074 131.14 12.1648 131.832 11.8619C132.585 11.5382 133.398 11.3759 134.217 11.3857C135.026 11.3768 135.828 11.5391 136.569 11.8619C137.994 12.4883 139.106 13.6604 139.656 15.1143C139.945 15.8615 140.09 16.6562 140.085 17.4571L140.057 17.5143ZM185.459 17.5143C185.472 19.0852 184.895 20.6039 183.842 21.7714C183.324 22.3284 182.695 22.7712 181.995 23.0714C181.253 23.392 180.452 23.5542 179.643 23.5476C178.823 23.5643 178.009 23.4018 177.258 23.0714C176.559 22.7607 175.929 22.3157 175.402 21.7619C174.874 21.2028 174.461 20.546 174.186 19.8286C173.893 19.0789 173.746 18.2807 173.752 17.4762V17.4238C173.745 16.6239 173.893 15.8302 174.186 15.0857C174.462 14.3827 174.866 13.7368 175.378 13.1809C175.89 12.6254 176.513 12.1827 177.206 11.8809C177.951 11.5593 178.755 11.3971 179.567 11.4047C180.377 11.396 181.181 11.5583 181.924 11.8809C182.625 12.1942 183.259 12.6406 183.789 13.1952C184.32 13.7545 184.735 14.4132 185.01 15.1333C185.299 15.8805 185.445 16.6753 185.44 17.4762L185.459 17.5143ZM165.541 7.7857V27.1428H161.897L152.541 14.8333V27.1428H148.334V7.7857H152.269L161.334 19.6905V7.7857H165.541ZM87.9137 16.8516C87.5755 17.6762 87.2765 18.405 86.9927 19.1H92.1784C91.7695 18.1125 91.3401 17.0582 90.8099 15.7568C90.4556 14.8869 90.0562 13.9066 89.588 12.7619C88.9155 14.4098 88.3783 15.7192 87.9149 16.8489L87.9143 16.8502L87.9137 16.8516ZM99.9116 27.1428L91.5964 7.6476H87.6606L79.374 27.1428H83.7201L85.3946 23.0143H93.7718L95.4559 27.1428H99.9116ZM120.12 7.7857V27.1428H116.499L107.139 14.8333V27.1428H102.936V7.7857H106.862L115.927 19.6905V7.7857H120.12Z" fill="white"/>
<path fill-rule="evenodd" clip-rule="evenodd" d="M18.6057 32.3286C18.747 32.4805 18.8543 32.6607 18.9205 32.8571C22.5036 32.5234 25.8577 30.9521 28.4046 28.4143L32.3356 24.4952C32.4311 24.3945 32.5639 24.3374 32.7029 24.3374C32.8419 24.3374 32.9747 24.3945 33.0702 24.4952L33.1036 24.5238C33.2036 24.6207 33.26 24.7538 33.26 24.8929C33.26 25.0319 33.2036 25.1651 33.1036 25.2619L29.1774 29.181C26.4271 31.9219 22.7972 33.6079 18.9253 33.9429C18.6764 34.5663 18.046 34.9518 17.3766 34.8901C16.7071 34.8284 16.1581 34.3342 16.0278 33.6758C15.8974 33.0174 16.2167 32.352 16.8124 32.0407C17.408 31.7294 18.1379 31.8466 18.6057 32.3286ZM36.5624 16.3905C36.1212 15.9428 35.448 15.8157 34.8735 16.0714L33.3469 14.5476L33.1657 14.3714L26.8541 8.06667C22.4057 3.6553 15.4819 2.92636 10.2093 6.31429C9.58723 5.91316 8.76697 6.0122 8.25864 6.54981C7.7503 7.08743 7.69863 7.91054 8.13576 8.50728C8.57289 9.10403 9.37436 9.30449 10.0417 8.98401C10.7091 8.66353 11.0524 7.91336 10.8581 7.2C15.6918 4.13191 22.0093 4.81192 26.0765 8.8381L32.3928 15.1381L32.5693 15.3143L34.0959 16.8429C33.8473 17.4187 33.9738 18.0876 34.4156 18.5333C34.8596 18.9764 35.5316 19.0996 36.1044 18.8429L37.6357 20.3762L37.817 20.5524L44.1286 26.8476C48.577 31.259 55.5008 31.9879 60.7734 28.6C61.3946 28.9826 62.2007 28.8693 62.692 28.3304C63.1832 27.7915 63.2204 26.9798 62.7804 26.3985C62.3404 25.8171 61.548 25.6309 60.8944 25.9553C60.2409 26.2798 59.9114 27.0228 60.1102 27.7238C55.2738 30.7834 48.9612 30.1019 44.8919 26.081L38.5851 19.7762L36.882 18.0952C37.134 17.5213 37.007 16.8518 36.5624 16.4095V16.3905ZM52.4009 2.58095C52.2533 2.435 52.1379 2.25982 52.0622 2.06667C48.4743 2.39893 45.1167 3.97609 42.5734 6.52381L38.6424 10.4429C38.4367 10.6431 38.1086 10.6431 37.9029 10.4429L37.8695 10.4048C37.6689 10.1995 37.6689 9.87196 37.8695 9.66667L41.8005 5.74762C44.5453 3.00157 48.1757 1.31454 52.0479 0.985714C52.1257 0.782992 52.2442 0.598269 52.3961 0.442857C52.991 -0.148691 53.9535 -0.14746 54.5469 0.445607C55.1403 1.03867 55.1403 1.99942 54.5469 2.59249C53.9535 3.18556 52.991 3.18679 52.3961 2.59524L52.4009 2.58095ZM37.1682 25.9762C36.7122 25.5229 36.5936 24.8313 36.8724 24.2524L35.4937 22.8571L30.8424 18.219L30.246 17.619L30.0552 17.4571L28.4713 15.881L24.3877 11.8048C23.7203 12.1072 22.9317 11.8918 22.5116 11.2922C22.0915 10.6927 22.1592 9.87947 22.6726 9.35739C23.1861 8.83531 23.9995 8.75273 24.6077 9.16094C25.216 9.56915 25.4463 10.3522 25.1557 11.0238L30.828 16.6905L31.0093 16.8667L31.6009 17.4571L36.257 22.0952L37.6596 23.5238C38.2298 23.2916 38.8839 23.4229 39.3198 23.8571C39.7522 24.2901 39.8803 24.9407 39.6442 25.5048L42.5686 28.4238C45.2241 31.0513 48.7453 32.6267 52.4772 32.8571C52.7336 32.8734 52.938 33.0774 52.9543 33.3333V33.3857C52.9613 33.5325 52.9038 33.6751 52.7968 33.7762C52.6942 33.8825 52.5479 33.9353 52.4009 33.919C48.4082 33.6713 44.6421 31.9821 41.8053 29.1667L38.9 26.2762C38.3174 26.5527 37.6234 26.4324 37.1682 25.9762ZM46.1275 25.5714C45.6865 25.1296 45.5564 24.4656 45.7983 23.8905L40.1403 18.2333L39.3627 17.4571L37.817 15.9143L34.7161 12.819L33.3135 11.4286C32.7461 11.6578 32.0964 11.5266 31.6629 11.0952C31.226 10.6651 31.0939 10.0135 31.329 9.44762L28.4046 6.52381C25.7593 3.87804 22.2378 2.28647 18.5007 2.04762C18.2348 2.02794 18.0278 1.80898 18.0236 1.54286V1.48571C18.0143 1.34224 18.0704 1.20223 18.1763 1.10476C18.2791 1.00083 18.4213 0.945422 18.5675 0.952381C22.5697 1.21347 26.3404 2.91769 29.1774 5.74762L32.0827 8.64286C32.6653 8.3652 33.3599 8.4846 33.8159 8.94077C34.2718 9.39695 34.3898 10.0906 34.1102 10.6714L35.4937 12.0429L40.1403 16.6905L40.7319 17.281L40.9084 17.4571L42.497 19.0476L46.5807 23.1286C47.2858 22.8197 48.1109 23.0851 48.5026 23.7469C48.8943 24.4086 48.729 25.2581 48.1177 25.7255C47.5064 26.1929 46.6417 26.1308 46.1036 25.581L46.1275 25.5714ZM61.9088 18.6286C61.5087 18.2482 61.3465 17.6812 61.4852 17.1474C61.6239 16.6135 62.0415 16.1966 62.5764 16.0581C63.1113 15.9197 63.6793 16.0816 64.0603 16.481C64.6465 17.0773 64.6465 18.0322 64.0603 18.6286C63.8816 18.8081 63.6599 18.9392 63.4163 19.0095C63.0994 21.1016 62.1197 23.0374 60.6207 24.5333C57.9638 27.163 54.0653 28.1055 50.4974 26.981C50.3526 26.9426 50.2342 26.8386 50.1778 26.7C50.1113 26.5665 50.1113 26.4097 50.1778 26.2762V26.2238C50.2846 25.9828 50.5554 25.86 50.8075 25.9381C53.9861 26.9417 57.4601 26.1037 59.8288 23.7619C61.1417 22.4481 62.0079 20.7557 62.3047 18.9238C62.1509 18.8491 62.0107 18.7493 61.8897 18.6286H61.9088ZM62.4288 17.881C62.3092 17.6782 62.3092 17.4266 62.4288 17.2238V17.2238V17.2238V17.2238V17.2238V17.2238V17.2238V17.2238V17.2238V17.2238V17.2238V17.2238V17.2238V17.2238V17.2238V17.2238C62.6781 16.9762 63.0811 16.9762 63.3304 17.2238V17.2238V17.2238V17.2238V17.2238V17.2238V17.2238V17.2238V17.2238V17.2238V17.2238V17.2238V17.2238V17.2238V17.2238V17.2238V17.2238V17.2238C63.4526 17.4225 63.4526 17.6728 63.3304 17.8714V17.8714V17.8714V17.8714V17.8714V17.8714V17.8714V17.8714V17.8714V17.8714V17.8714V17.8714V17.8714V17.8714V17.8714V17.8714C63.0811 18.119 62.6781 18.119 62.4288 17.8714V17.8714V17.8714V17.8714V17.8714V17.8714V17.8714V17.8714V17.8714V17.8714V17.8714V17.8714V17.8714V17.8714V17.8714V17.8714V17.881ZM57.453 2.50952C60.119 3.18811 62.5508 4.57541 64.4897 6.52381C67.0606 9.08429 68.6421 12.4693 68.955 16.081C68.7408 16.16 68.5457 16.2833 68.3825 16.4429C68.0131 16.8092 67.8578 17.3391 67.971 17.8465C68.0843 18.3538 68.4504 18.7677 68.9407 18.9429C68.2765 26.0563 62.7925 31.7768 55.7022 32.7524C55.4388 32.7909 55.2461 33.0201 55.2537 33.2857V33.3333C55.2514 33.4816 55.3185 33.6224 55.435 33.7143C55.5473 33.8161 55.7014 33.8585 55.8501 33.8286C63.4913 32.773 69.3819 26.5768 70.0379 18.9048C70.2165 18.8288 70.3786 18.7188 70.515 18.581C70.8014 18.2967 70.9624 17.9103 70.9624 17.5071C70.9624 17.104 70.8014 16.7176 70.515 16.4333C70.3792 16.2959 70.2169 16.1874 70.0379 16.1143C69.5004 9.09517 64.5522 3.19344 57.7249 1.42857C57.5797 1.38938 57.4246 1.41547 57.3003 1.5C57.1702 1.58069 57.0868 1.71886 57.0761 1.87143V1.92381C57.0481 2.18177 57.2118 2.42186 57.4625 2.49048L57.453 2.50952ZM64.4658 25.0381C67.7427 20.2808 67.5908 13.9615 64.089 9.36667C63.9959 9.24396 63.8519 9.17033 63.6978 9.16667C63.5386 9.15229 63.3828 9.21844 63.2827 9.34286L63.2446 9.38095C63.0841 9.57074 63.0841 9.84831 63.2446 10.0381C66.4494 14.2537 66.5897 20.0441 63.5928 24.4095C63.4432 24.6134 63.4677 24.8962 63.6501 25.0714L63.6882 25.1095C63.7973 25.2189 63.9494 25.2742 64.1034 25.2604C64.2573 25.2466 64.3972 25.1651 64.4849 25.0381H64.4658ZM61.6321 6.94286C56.3338 2.90596 48.865 3.3855 44.1286 8.06667L40.1976 11.9857C39.997 12.191 39.997 12.5185 40.1976 12.7238L40.231 12.7619C40.4367 12.9621 40.7648 12.9621 40.9704 12.7619L44.9014 8.83809C49.2457 4.54273 56.0947 4.09401 60.9642 7.78571C61.1821 7.95259 61.4921 7.92352 61.675 7.71905L61.7036 7.67619C61.8053 7.57304 61.8544 7.42937 61.8372 7.28571C61.8231 7.14028 61.7487 7.00736 61.6321 6.91905V6.94286ZM46.4471 10.3857L42.5209 14.3095C42.3209 14.5132 42.3209 14.8392 42.5209 15.0429L42.5591 15.081C42.7615 15.28 43.0865 15.28 43.289 15.081L47.2295 11.1571C50.7261 7.7038 56.3561 7.7038 59.8526 11.1571C60.7514 12.0573 61.4447 13.1408 61.8849 14.3333C61.981 14.5717 62.2337 14.7078 62.486 14.6571H62.5385C62.6862 14.6284 62.8136 14.536 62.8868 14.4048C62.9604 14.2735 62.9709 14.1161 62.9154 13.9762C62.4228 12.6315 61.6412 11.4109 60.6255 10.4C56.7027 6.51463 50.3747 6.51463 46.4519 10.4L46.4471 10.3857ZM61.1312 27.7667C60.941 27.6156 60.8541 27.3693 60.9073 27.1326C60.9604 26.8959 61.1444 26.7103 61.3809 26.6547C61.6175 26.5991 61.8651 26.6833 62.0185 26.8714C62.2662 27.12 62.2651 27.5218 62.0161 27.769C61.7671 28.0163 61.3645 28.0152 61.1168 27.7667H61.1312ZM9.06437 16.2905C9.65628 16.882 9.65588 17.8405 9.06348 18.4316C8.47108 19.0226 7.51087 19.0226 6.91847 18.4316C6.32607 17.8405 6.32568 16.882 6.91758 16.2905C7.09437 16.1108 7.31453 15.9796 7.55685 15.9095C7.87176 13.8178 8.84985 11.8819 10.3477 10.3857C13.0038 7.75111 16.9074 6.80957 20.4757 7.94286C20.6165 7.98632 20.7322 8.08733 20.794 8.2208C20.8559 8.35426 20.8581 8.50765 20.8002 8.64286V8.69048C20.6949 8.9359 20.4216 9.06306 20.1657 8.98571C16.9894 7.98057 13.5167 8.81689 11.1491 11.1571C9.83304 12.4712 8.96505 14.1657 8.66841 16C8.82422 16.0717 8.96629 16.17 9.08822 16.2905H9.06437ZM8.5396 17.0429C8.66129 17.2451 8.66129 17.4978 8.5396 17.7V17.7V17.7V17.7V17.7V17.7V17.7V17.7V17.7V17.7V17.7V17.7V17.7V17.7C8.29186 17.947 7.89046 17.947 7.64272 17.7V17.7V17.7V17.7V17.7V17.7V17.7V17.7V17.7V17.7V17.7V17.7V17.7V17.7V17.7V17.7C7.52081 17.4996 7.52081 17.2481 7.64272 17.0476V17.0476V17.0476V17.0476V17.0476V17.0476V17.0476V17.0476V17.0476V17.0476V17.0476V17.0476V17.0476V17.0476V17.0476C7.89046 16.8006 8.29186 16.8006 8.5396 17.0476V17.0476V17.0476V17.0476V17.0476V17.0476V17.0476V17.0476V17.0476V17.0476V17.0476V17.0476V17.0476V17.0476V17.0476V17.0476V17.0429ZM13.5297 32.4143C7.19848 30.7841 2.58882 25.3409 2.03245 18.8381C2.24558 18.7574 2.4391 18.6324 2.60015 18.4714C3.19087 17.8788 3.19087 16.9212 2.60015 16.3286C2.43906 16.1722 2.24744 16.0506 2.03722 15.9714C2.70686 8.86301 8.18219 3.14544 15.2662 2.15714C15.5391 2.1323 15.7469 1.90207 15.7433 1.62857V1.57619C15.7455 1.42796 15.6785 1.28713 15.562 1.19524C15.4507 1.09837 15.3026 1.05488 15.1565 1.07619C7.50715 2.12439 1.60778 8.32548 0.954281 16.0048C0.775683 16.0807 0.613638 16.1907 0.477216 16.3286C-0.113499 16.9212 -0.113499 17.8788 0.477216 18.4714C0.612123 18.6123 0.774473 18.7241 0.954281 18.8C1.49931 25.8125 6.4427 31.7069 13.2625 33.4762C13.4091 33.514 13.5649 33.4843 13.6871 33.3952C13.8129 33.3154 13.8941 33.1816 13.9066 33.0333V32.9714C13.9359 32.7153 13.7707 32.4771 13.5202 32.4143H13.5297ZM6.51208 9.88095C3.23958 14.6401 3.39343 20.9576 6.89373 25.5524C6.98715 25.6768 7.13195 25.7523 7.28762 25.7579C7.44329 25.7634 7.59312 25.6984 7.6952 25.581L7.73336 25.5429C7.89332 25.3493 7.89332 25.0697 7.73336 24.8762C4.53158 20.662 4.39508 14.8742 7.39465 10.5143C7.53952 10.3067 7.51332 10.0251 7.33263 9.84762L7.29923 9.80952C7.18747 9.70171 7.03421 9.64782 6.87942 9.6619C6.72427 9.67354 6.58249 9.75391 6.493 9.88095H6.51208ZM9.34584 27.9762C14.6507 32.0096 22.1232 31.5198 26.8541 26.8286L30.7803 22.9095C30.8791 22.812 30.9347 22.6791 30.9347 22.5405C30.9347 22.4018 30.8791 22.2689 30.7803 22.1714L30.7517 22.1333C30.546 21.9331 30.2179 21.9331 30.0123 22.1333L26.0765 26.0619C21.743 30.3694 14.8921 30.8306 10.0185 27.1429C9.80179 26.9748 9.49195 27.0018 9.30767 27.2048L9.27428 27.2476C9.17832 27.3545 9.13147 27.4966 9.14506 27.6394C9.15865 27.7823 9.23144 27.913 9.34584 28V27.9762ZM24.5308 24.5143L28.457 20.5905C28.5555 20.4938 28.611 20.3617 28.611 20.2238C28.611 20.0859 28.5555 19.9538 28.457 19.8571L28.4284 19.8143C28.2227 19.6141 27.8946 19.6141 27.689 19.8143L23.7532 23.7619C20.2583 27.2147 14.6297 27.2147 11.1348 23.7619C10.2348 22.8637 9.53988 21.7818 9.09777 20.5905C9.0101 20.3441 8.75254 20.2013 8.49666 20.2571H8.44419C8.29677 20.29 8.1712 20.3857 8.1007 20.519C8.02193 20.6485 8.00953 20.8076 8.06731 20.9476C8.56119 22.2902 9.34267 23.5091 10.3572 24.519C14.2821 28.3992 20.6059 28.3992 24.5308 24.519V24.5143ZM9.84676 7.14286C10.0954 7.3934 10.0954 7.79708 9.84676 8.04762C9.59676 8.29585 9.19261 8.29515 8.94349 8.04605C8.69437 7.79694 8.69437 7.39353 8.94349 7.14443C9.19261 6.89533 9.59676 6.89462 9.84676 7.14286V7.14286ZM35.9422 17.9048C36.1897 17.6575 36.1897 17.2568 35.9422 17.0095C35.6912 16.7614 35.2868 16.7614 35.0357 17.0095C34.8181 17.2637 34.8339 17.6425 35.072 17.8777C35.3102 18.1129 35.6898 18.1247 35.9422 17.9048V17.9048Z" fill="white"/>
</svg>
